<svg width="209" height="303" viewBox="0 0 209 303" fill="none" xmlns="http://www.w3.org/2000/svg">
<g clip-path="url(#clip0_213_2042)">
<path fill-rule="evenodd" clip-rule="evenodd" d="M207.955 11.9079C207.955 5.83892 203.775 0.983765 198.55 0.983765H10.4499C5.22492 0.983765 1.04492 5.83892 1.04492 11.9079V291.079C1.04492 297.148 5.22492 302.003 10.4499 302.003H198.55C203.775 302.003 207.955 297.148 207.955 291.079V11.9079Z" fill="white" stroke="black" stroke-width="2"/>
<path d="M15.1344 40.4802H12.1799L20.7253 17.2075H23.6344L32.1799 40.4802H29.2253L22.2708 20.8893H22.089L15.1344 40.4802ZM16.2253 31.3893H28.1344V33.8893H16.2253V31.3893Z" fill="black"/>
<path d="M192.435 267.061H195.389L186.844 290.334H183.935L175.389 267.061H178.344L185.298 286.652H185.48L192.435 267.061ZM191.344 276.152H179.435V273.652H191.344V276.152Z" fill="black"/>
<path fill-rule="evenodd" clip-rule="evenodd" d="M185.281 254.159C181.981 249.219 177.65 246.337 177.65 242.22C177.65 238.514 179.712 237.691 180.95 237.691C182.6 237.691 183.837 238.514 183.837 241.396C183.837 242.22 184.662 242.22 184.662 241.396C184.662 237.279 183.837 237.279 183.012 235.221H187.55C186.725 237.279 185.9 237.279 185.9 241.396C185.9 242.22 186.725 242.22 186.725 241.396C186.725 238.103 187.962 237.691 189.612 237.691C190.85 237.691 193.325 238.514 193.325 242.22C193.325 246.39 188.581 249.219 185.281 254.159Z" fill="black" stroke="black"/>
<path fill-rule="evenodd" clip-rule="evenodd" d="M22.2611 52.8149C18.9611 57.7554 14.6299 60.6373 14.6299 64.7543C14.6299 68.4596 16.6924 69.283 17.9299 69.283C19.5799 69.283 20.8174 68.4596 20.8174 65.5777C20.8174 64.7543 21.6424 64.7543 21.6424 65.5777C21.6424 69.6947 20.8174 69.6947 19.9924 71.7533H24.5299C23.7049 69.6947 22.8799 69.6947 22.8799 65.5777C22.8799 64.7543 23.7049 64.7543 23.7049 65.5777C23.7049 68.8713 24.9424 69.283 26.5924 69.283C27.8299 69.283 30.3049 68.4596 30.3049 64.7543C30.3049 60.5836 25.5611 57.7554 22.2611 52.8149Z" fill="black" stroke="black"/>
<path fill-rule="evenodd" clip-rule="evenodd" d="M102.41 107.636C85.6899 130.778 63.7449 144.278 63.7449 163.563C63.7449 180.919 74.1949 184.776 80.4649 184.776C88.8249 184.776 95.0949 180.919 95.0949 167.42C95.0949 163.563 99.2749 163.563 99.2749 167.42C99.2749 186.705 95.0949 186.705 90.9149 196.347H113.905C109.725 186.705 105.545 186.705 105.545 167.42C105.545 163.563 109.725 163.563 109.725 167.42C109.725 182.848 115.995 184.776 124.355 184.776C130.625 184.776 143.165 180.919 143.165 163.563C143.165 144.026 119.13 130.778 102.41 107.636Z" fill="black" stroke="black"/>
</g>
<defs>
<clipPath id="clip0_213_2042">
<rect width="209" height="303" fill="white"/>
</clipPath>
</defs>
</svg>
