<svg width="209" height="303" viewBox="0 0 209 303" fill="none" xmlns="http://www.w3.org/2000/svg">
<g clip-path="url(#clip0_212_2026)">
<path fill-rule="evenodd" clip-rule="evenodd" d="M207.955 11.9079C207.955 5.83892 203.775 0.983765 198.55 0.983765H10.4499C5.22492 0.983765 1.04492 5.83892 1.04492 11.9079V291.079C1.04492 297.148 5.22492 302.003 10.4499 302.003H198.55C203.775 302.003 207.955 297.148 207.955 291.079V11.9079Z" fill="white" stroke="black" stroke-width="2"/>
<path d="M15.1344 40.4802H12.1799L20.7253 17.2075H23.6344L32.1799 40.4802H29.2253L22.2708 20.8893H22.089L15.1344 40.4802ZM16.2253 31.3893H28.1344V33.8893H16.2253V31.3893Z" fill="black"/>
<path d="M192.435 267.061H195.389L186.844 290.334H183.935L175.389 267.061H178.344L185.298 286.652H185.48L192.435 267.061ZM191.344 276.152H179.435V273.652H191.344V276.152Z" fill="black"/>
<path fill-rule="evenodd" clip-rule="evenodd" d="M183.084 245.415C180.576 246.638 179.322 253.162 185.174 253.162C191.026 253.162 189.772 246.638 187.264 245.415C188.936 246.638 194.37 248.269 194.37 242.561C194.37 236.852 186.846 237.26 186.428 241.745H185.592C185.592 241.745 186.01 237.26 187.264 235.221H183.084C184.338 237.26 184.756 241.745 184.756 241.745H183.92C183.502 237.26 175.56 236.852 175.56 242.561C175.56 247.454 181.412 246.638 183.084 245.415Z" fill="black" stroke="black"/>
<path fill-rule="evenodd" clip-rule="evenodd" d="M20.064 60.9928C17.556 59.7016 16.302 52.8149 22.154 52.8149C28.006 52.8149 26.752 59.7016 24.244 60.9928C25.916 59.7016 31.35 57.9799 31.35 64.0058C31.35 70.0316 23.826 69.6012 23.408 64.8666H22.572C22.572 64.8666 22.99 69.6012 24.244 71.7533H20.064C21.318 69.6012 21.736 64.8666 21.736 64.8666H20.9C20.482 69.6012 12.54 70.0316 12.54 64.0058C12.54 58.8408 18.392 59.7016 20.064 60.9928Z" fill="black" stroke="black"/>
<path fill-rule="evenodd" clip-rule="evenodd" d="M94.0499 146.215C81.5099 140.439 75.2399 109.63 104.5 109.63C133.76 109.63 127.49 140.439 114.95 146.215C123.31 140.439 150.48 132.736 150.48 159.694C150.48 186.652 112.86 184.726 110.77 163.545H106.59C106.59 163.545 108.68 184.726 114.95 194.354H94.0499C100.32 184.726 102.41 163.545 102.41 163.545H98.2299C96.1399 184.726 56.4299 186.652 56.4299 159.694C56.4299 136.588 85.6899 140.439 94.0499 146.215Z" fill="black" stroke="black"/>
</g>
<defs>
<clipPath id="clip0_212_2026">
<rect width="209" height="303" fill="white"/>
</clipPath>
</defs>
</svg>
