<svg width="209" height="303" viewBox="0 0 209 303" fill="none" xmlns="http://www.w3.org/2000/svg">
<g clip-path="url(#clip0_213_2034)">
<path fill-rule="evenodd" clip-rule="evenodd" d="M207.955 11.9079C207.955 5.83892 203.775 0.983765 198.55 0.983765H10.4499C5.22492 0.983765 1.04492 5.83892 1.04492 11.9079V291.079C1.04492 297.148 5.22492 302.003 10.4499 302.003H198.55C203.775 302.003 207.955 297.148 207.955 291.079V11.9079Z" fill="white" stroke="black" stroke-width="2"/>
<path d="M15.1344 40.4802H12.1799L20.7253 17.2075H23.6344L32.1799 40.4802H29.2253L22.2708 20.8893H22.089L15.1344 40.4802ZM16.2253 31.3893H28.1344V33.8893H16.2253V31.3893Z" fill="#FF0000"/>
<path d="M15.1344 40.4802V40.9802H15.4875L15.6056 40.6475L15.1344 40.4802ZM12.1799 40.4802L11.7105 40.3079L11.4636 40.9802H12.1799V40.4802ZM20.7253 17.2075V16.7075H20.3763L20.256 17.0352L20.7253 17.2075ZM23.6344 17.2075L24.1038 17.0352L23.9835 16.7075H23.6344V17.2075ZM32.1799 40.4802V40.9802H32.8961L32.6492 40.3079L32.1799 40.4802ZM29.2253 40.4802L28.7541 40.6475L28.8723 40.9802H29.2253V40.4802ZM22.2708 20.8893L22.742 20.722L22.6239 20.3893H22.2708V20.8893ZM22.089 20.8893V20.3893H21.7359L21.6178 20.722L22.089 20.8893ZM16.2253 31.3893V30.8893H15.7253V31.3893H16.2253ZM28.1344 31.3893H28.6344V30.8893H28.1344V31.3893ZM28.1344 33.8893V34.3893H28.6344V33.8893H28.1344ZM16.2253 33.8893H15.7253V34.3893H16.2253V33.8893ZM15.1344 39.9802H12.1799V40.9802H15.1344V39.9802ZM12.6492 40.6526L21.1947 17.3798L20.256 17.0352L11.7105 40.3079L12.6492 40.6526ZM20.7253 17.7075H23.6344V16.7075H20.7253V17.7075ZM23.1651 17.3798L31.7105 40.6526L32.6492 40.3079L24.1038 17.0352L23.1651 17.3798ZM32.1799 39.9802H29.2253V40.9802H32.1799V39.9802ZM29.6965 40.313L22.742 20.722L21.7996 21.0566L28.7541 40.6475L29.6965 40.313ZM22.2708 20.3893H22.089V21.3893H22.2708V20.3893ZM21.6178 20.722L14.6632 40.313L15.6056 40.6475L22.5602 21.0566L21.6178 20.722ZM16.2253 31.8893H28.1344V30.8893H16.2253V31.8893ZM27.6344 31.3893V33.8893H28.6344V31.3893H27.6344ZM28.1344 33.3893H16.2253V34.3893H28.1344V33.3893ZM16.7253 33.8893V31.3893H15.7253V33.8893H16.7253Z" fill="#FF0000"/>
<path fill-rule="evenodd" clip-rule="evenodd" d="M184.965 249.574C184.965 250.77 182.875 253.162 180.785 253.162C178.695 253.162 176.605 251.568 176.605 248.777C176.605 244.391 183.293 237.214 184.965 235.221C186.637 237.214 193.325 244.391 193.325 248.777C193.325 251.568 191.235 253.162 189.145 253.162C187.045 253.162 184.965 250.77 184.965 249.574Z" fill="#FF0000" stroke="#FF0000"/>
<path fill-rule="evenodd" clip-rule="evenodd" d="M21.945 56.6026C21.945 55.34 19.855 52.8149 17.765 52.8149C15.675 52.8149 13.585 54.4983 13.585 57.4443C13.585 62.0737 20.273 69.649 21.945 71.7533C23.617 69.649 30.305 62.0737 30.305 57.4443C30.305 54.4983 28.215 52.8149 26.125 52.8149C24.0245 52.8149 21.945 55.34 21.945 56.6026Z" fill="#FF0000" stroke="#FF0000"/>
<path d="M192.435 267.061H195.389L186.844 290.334H183.935L175.389 267.061H178.344L185.298 286.652H185.48L192.435 267.061ZM191.344 276.152H179.435V273.652H191.344V276.152Z" fill="#FF0000"/>
<path d="M192.435 267.061V266.561H192.082L191.963 266.894L192.435 267.061ZM195.389 267.061L195.859 267.233L196.105 266.561H195.389V267.061ZM186.844 290.334V290.834H187.193L187.313 290.506L186.844 290.334ZM183.935 290.334L183.465 290.506L183.586 290.834H183.935V290.334ZM175.389 267.061V266.561H174.673L174.92 267.233L175.389 267.061ZM178.344 267.061L178.815 266.894L178.697 266.561H178.344V267.061ZM185.298 286.652L184.827 286.819L184.945 287.152H185.298V286.652ZM185.48 286.652V287.152H185.833L185.951 286.819L185.48 286.652ZM191.344 276.152V276.652H191.844V276.152H191.344ZM179.435 276.152H178.935V276.652H179.435V276.152ZM179.435 273.652V273.152H178.935V273.652H179.435ZM191.344 273.652H191.844V273.152H191.344V273.652ZM192.435 267.561H195.389V266.561H192.435V267.561ZM194.92 266.888L186.374 290.161L187.313 290.506L195.859 267.233L194.92 266.888ZM186.844 289.834H183.935V290.834H186.844V289.834ZM184.404 290.161L175.859 266.888L174.92 267.233L183.465 290.506L184.404 290.161ZM175.389 267.561H178.344V266.561H175.389V267.561ZM177.873 267.228L184.827 286.819L185.769 286.484L178.815 266.894L177.873 267.228ZM185.298 287.152H185.48V286.152H185.298V287.152ZM185.951 286.819L192.906 267.228L191.963 266.894L185.009 286.484L185.951 286.819ZM191.344 275.652H179.435V276.652H191.344V275.652ZM179.935 276.152V273.652H178.935V276.152H179.935ZM179.435 274.152H191.344V273.152H179.435V274.152ZM190.844 273.652V276.152H191.844V273.652H190.844Z" fill="#FF0000"/>
<path fill-rule="evenodd" clip-rule="evenodd" d="M103.455 125.977C103.455 120.195 93.005 108.633 82.555 108.633C72.105 108.633 61.655 116.341 61.655 129.831C61.655 151.028 95.095 185.715 103.455 195.351C111.815 185.715 145.255 151.028 145.255 129.831C145.255 116.341 134.805 108.633 124.355 108.633C113.853 108.633 103.455 120.195 103.455 125.977Z" fill="#FF0000" stroke="#FF0000"/>
</g>
<defs>
<clipPath id="clip0_213_2034">
<rect width="209" height="303" fill="white"/>
</clipPath>
</defs>
</svg>
